<svg xmlns="http://www.w3.org/2000/svg" width="16" height="15" viewBox="0 0 16 15">
  <defs>
    <style>
      .cls-1 {
        fill: #fff;
        fill-rule: evenodd;
      }
    </style>
  </defs>
  <path id="Shape_3_copy" data-name="Shape 3 copy" class="cls-1" d="M4.917,12.143A1.417,1.417,0,1,0,6.3,13.56,1.4,1.4,0,0,0,4.917,12.143Zm7.618,0a1.42,1.42,0,0,0,.092,2.833h0.1a1.374,1.374,0,0,0,.943-0.489,1.447,1.447,0,0,0,.335-1.03,1.415,1.415,0,0,0-.481-0.976A1.345,1.345,0,0,0,12.535,12.143Zm2.792-8.082a0.679,0.679,0,0,0-.578-0.32H7.2a0.707,0.707,0,0,0,0,1.414h6.489L11.8,9.622H5.955L3.762,1.46A0.694,0.694,0,0,0,3.093.939H1.125a0.707,0.707,0,0,0,0,1.415H2.573l2.193,8.162a0.693,0.693,0,0,0,.668.522h6.83a0.692,0.692,0,0,0,.634-0.426L15.383,4.73v0A0.73,0.73,0,0,0,15.327,4.062Z"/>
</svg>
