<svg xmlns="http://www.w3.org/2000/svg" width="131" height="41" viewBox="0 0 131 41">
  <defs>
    <style>
      .cls-1 {
        fill: #363636;
      }

      .cls-1, .cls-2 {
        fill-rule: evenodd;
      }

      .cls-2 {
        fill: #fff;
      }
    </style>
  </defs>
  <path id="background" class="cls-1" d="M3.852-.006H127.163a3.907,3.907,0,0,1,3.842,4.1V36.9a3.908,3.908,0,0,1-3.842,4.1H3.852A3.907,3.907,0,0,1,.011,36.9V4.094A3.906,3.906,0,0,1,3.852-.006Z"/>
  <path id="Download_on_the_App_Store" data-name="Download on the App Store" class="cls-2" d="M41.69,14.728a4.164,4.164,0,0,0,.983-0.1,2.282,2.282,0,0,0,.731-0.309,2.241,2.241,0,0,0,.557-0.56,3.04,3.04,0,0,0,.418-0.9,4.338,4.338,0,0,0,.163-1.245,4.169,4.169,0,0,0-.24-1.467,2.512,2.512,0,0,0-.724-1.054,2.07,2.07,0,0,0-.9-0.442,5.085,5.085,0,0,0-1.09-.088H39.481v6.169H41.69Zm-1.4-5.441h1.286a3.145,3.145,0,0,1,1.048.126,1.591,1.591,0,0,1,.766.7,2.888,2.888,0,0,1,.315,1.488,3.838,3.838,0,0,1-.161,1.188,1.949,1.949,0,0,1-.449.781,1.361,1.361,0,0,1-.549.32A3.162,3.162,0,0,1,41.6,14H40.291V9.287Zm5.462,4.94a1.986,1.986,0,0,0,1.505.6,2.164,2.164,0,0,0,1.071-.273,1.826,1.826,0,0,0,.747-0.768,2.976,2.976,0,0,0,.257-1.357,2.308,2.308,0,0,0-.58-1.669,1.982,1.982,0,0,0-1.495-.6,2.052,2.052,0,0,0-1.395.5,2.313,2.313,0,0,0-.685,1.839A2.417,2.417,0,0,0,45.753,14.227Zm0.57-3.017a1.232,1.232,0,0,1,1.864,0,1.854,1.854,0,0,1,.374,1.256,1.958,1.958,0,0,1-.372,1.309,1.231,1.231,0,0,1-1.867,0,1.913,1.913,0,0,1-.372-1.286A1.9,1.9,0,0,1,46.323,11.21Zm5.427,3.518,0.9-3.438,0.171,0.762,0.706,2.676h0.781l1.386-4.469H54.961L54.2,12.843l-0.255.863-0.221-.854-0.664-2.593H52.288l-0.706,2.618q-0.213.85-.23,0.921l-0.263-.959-0.706-2.58H49.607l1.357,4.469h0.785Zm5.025,0V12.287a1.522,1.522,0,0,1,.349-1.166,1.21,1.21,0,0,1,.829-0.307,0.983,0.983,0,0,1,.524.136,0.729,0.729,0,0,1,.311.366,2.057,2.057,0,0,1,.088.693v2.718h0.752V11.98a4.373,4.373,0,0,0-.042-0.736,1.476,1.476,0,0,0-.234-0.56,1.168,1.168,0,0,0-.5-0.381,1.844,1.844,0,0,0-.737-0.145,1.592,1.592,0,0,0-1.411.736V10.259H56.023v4.469h0.752Zm4.38,0V8.559H60.4v6.169h0.752Zm1.485-.5a1.986,1.986,0,0,0,1.505.6,2.163,2.163,0,0,0,1.071-.273,1.826,1.826,0,0,0,.748-0.768,2.977,2.977,0,0,0,.257-1.357,2.308,2.308,0,0,0-.58-1.669,1.982,1.982,0,0,0-1.495-.6,2.052,2.052,0,0,0-1.395.5,2.313,2.313,0,0,0-.685,1.839A2.417,2.417,0,0,0,62.64,14.227Zm0.57-3.017a1.233,1.233,0,0,1,1.864,0,1.855,1.855,0,0,1,.374,1.256,1.958,1.958,0,0,1-.372,1.309,1.231,1.231,0,0,1-1.866,0,1.912,1.912,0,0,1-.372-1.286A1.9,1.9,0,0,1,63.21,11.21Zm7.329,3.518h0.785a1.693,1.693,0,0,1-.19-0.536,10.791,10.791,0,0,1-.048-1.336v-1.01a4.294,4.294,0,0,0-.038-0.7,1.192,1.192,0,0,0-.234-0.515,1.218,1.218,0,0,0-.522-0.339,2.646,2.646,0,0,0-.923-0.135,2.949,2.949,0,0,0-1.006.157,1.448,1.448,0,0,0-.664.451,1.843,1.843,0,0,0-.33.768l0.735,0.1a1.145,1.145,0,0,1,.374-0.662,1.318,1.318,0,0,1,.783-0.187,1.251,1.251,0,0,1,.856.257,0.839,0.839,0,0,1,.213.652c0,0.028,0,.094,0,0.2a6.819,6.819,0,0,1-1.34.261,5.183,5.183,0,0,0-.668.114,1.794,1.794,0,0,0-.541.248,1.248,1.248,0,0,0-.537,1.035,1.192,1.192,0,0,0,.392.919,1.605,1.605,0,0,0,1.123.36,2.305,2.305,0,0,0,.829-0.147,2.8,2.8,0,0,0,.8-0.505,1.612,1.612,0,0,0,.15.551h0Zm-0.213-1.965a1.842,1.842,0,0,1-.121.758,1.174,1.174,0,0,1-.5.523,1.539,1.539,0,0,1-.772.192,0.975,0.975,0,0,1-.666-0.2,0.674,0.674,0,0,1-.123-0.865,0.657,0.657,0,0,1,.3-0.246,2.833,2.833,0,0,1,.656-0.152,5.492,5.492,0,0,0,1.228-.286v0.278Zm5.867,1.965V8.559H75.446v2.214a1.5,1.5,0,0,0-.509-0.444,1.473,1.473,0,0,0-.714-0.17,1.736,1.736,0,0,0-1.653,1.125,3.2,3.2,0,0,0-.221,1.214,2.86,2.86,0,0,0,.244,1.214,1.937,1.937,0,0,0,.689.823,1.731,1.731,0,0,0,.975.294,1.377,1.377,0,0,0,1.24-.665v0.564h0.7ZM73.456,11.2a1.038,1.038,0,0,1,.837-0.412,1.075,1.075,0,0,1,.864.429,2.112,2.112,0,0,1,.351,1.346,1.882,1.882,0,0,1-.345,1.239,1.06,1.06,0,0,1-.837.406,1.079,1.079,0,0,1-.848-0.425A1.95,1.95,0,0,1,73.12,12.5,2.046,2.046,0,0,1,73.456,11.2Zm6.589,3.03a1.987,1.987,0,0,0,1.505.6,2.164,2.164,0,0,0,1.071-.273,1.826,1.826,0,0,0,.747-0.768,2.977,2.977,0,0,0,.257-1.357,2.307,2.307,0,0,0-.581-1.669,1.981,1.981,0,0,0-1.495-.6,2.053,2.053,0,0,0-1.395.5,2.313,2.313,0,0,0-.685,1.839A2.417,2.417,0,0,0,80.045,14.227Zm0.57-3.017a1.232,1.232,0,0,1,1.864,0,1.854,1.854,0,0,1,.374,1.256,1.958,1.958,0,0,1-.372,1.309,1.231,1.231,0,0,1-1.867,0,1.913,1.913,0,0,1-.372-1.286A1.9,1.9,0,0,1,80.615,11.21Zm4.661,3.518V12.287a1.522,1.522,0,0,1,.349-1.166,1.21,1.21,0,0,1,.829-0.307,0.983,0.983,0,0,1,.524.136,0.728,0.728,0,0,1,.311.366,2.057,2.057,0,0,1,.088.693v2.718h0.752V11.98a4.37,4.37,0,0,0-.042-0.736,1.473,1.473,0,0,0-.234-0.56,1.167,1.167,0,0,0-.5-0.381,1.844,1.844,0,0,0-.737-0.145,1.592,1.592,0,0,0-1.411.736V10.259H84.524v4.469h0.752Zm8.034-.649a0.5,0.5,0,0,1-.257-0.054,0.313,0.313,0,0,1-.129-0.147,1.328,1.328,0,0,1-.04-0.417V10.848H93.64V10.259H92.884V8.7l-0.747.454v1.107H91.585v0.589h0.551v2.571a2.735,2.735,0,0,0,.092.895,0.729,0.729,0,0,0,.317.342,1.282,1.282,0,0,0,.635.13,2.8,2.8,0,0,0,.568-0.067l-0.108-.67a2.411,2.411,0,0,1-.33.029h0Zm1.611,0.649V12.283a2.185,2.185,0,0,1,.125-0.824,0.983,0.983,0,0,1,.42-0.474,1.213,1.213,0,0,1,.628-0.174,0.9,0.9,0,0,1,.691.258,1.178,1.178,0,0,1,.244.827v2.832h0.752V11.9a2.512,2.512,0,0,0-.157-1,1.144,1.144,0,0,0-.52-0.54,1.777,1.777,0,0,0-.856-0.2,1.675,1.675,0,0,0-1.328.614V8.559H94.169v6.169h0.752Zm7.124-.741a1.143,1.143,0,0,1-.706.219,1.226,1.226,0,0,1-.927-0.391A1.73,1.73,0,0,1,100,12.687h3.307c0-.09,0-0.157,0-0.2a2.44,2.44,0,0,0-.563-1.717,1.89,1.89,0,0,0-1.454-.61,1.943,1.943,0,0,0-1.495.623,2.481,2.481,0,0,0-.576,1.75,2.371,2.371,0,0,0,.57,1.694,2.019,2.019,0,0,0,1.543.6,2.041,2.041,0,0,0,1.27-.379,1.91,1.91,0,0,0,.68-1.064l-0.776-.1A1.456,1.456,0,0,1,102.045,13.987Zm-1.614-2.857a1.192,1.192,0,0,1,.871-0.349,1.148,1.148,0,0,1,.931.438,1.527,1.527,0,0,1,.284.846h-2.476A1.39,1.39,0,0,1,100.431,11.13ZM39.766,29.378l1.21-3.363h4.608l1.285,3.363H48.53l-4.51-11.1H42.449l-4.232,11.1h1.548Zm2.841-7.817a14.22,14.22,0,0,0,.594-2.121q0.255,0.9.782,2.3l1.15,3.075H41.4Zm8.1,10.9V28.545a2.755,2.755,0,0,0,.883.727,2.53,2.53,0,0,0,1.214.288,3.263,3.263,0,0,0,1.763-.527,3.332,3.332,0,0,0,1.278-1.515,5.411,5.411,0,0,0,.44-2.223,5.5,5.5,0,0,0-.4-2.117,3.255,3.255,0,0,0-1.18-1.5,3.14,3.14,0,0,0-1.8-.53,2.688,2.688,0,0,0-1.33.307,3.05,3.05,0,0,0-.985.92V21.334H49.353V32.461h1.353Zm0.537-9.426a1.944,1.944,0,0,1,1.529-.814,1.885,1.885,0,0,1,1.5.765,3.573,3.573,0,0,1,.628,2.3,3.669,3.669,0,0,1-.643,2.383,1.95,1.95,0,0,1-1.545.768A1.907,1.907,0,0,1,51.2,27.7a3.519,3.519,0,0,1-.624-2.3A3.663,3.663,0,0,1,51.243,23.035Zm8.393,9.426V28.545a2.757,2.757,0,0,0,.883.727,2.53,2.53,0,0,0,1.214.288,3.263,3.263,0,0,0,1.763-.527,3.332,3.332,0,0,0,1.278-1.515,5.414,5.414,0,0,0,.44-2.223,5.5,5.5,0,0,0-.4-2.117,3.257,3.257,0,0,0-1.18-1.5,3.14,3.14,0,0,0-1.8-.53,2.689,2.689,0,0,0-1.331.307,3.051,3.051,0,0,0-.985.92V21.334H58.283V32.461h1.353Zm0.537-9.426a1.944,1.944,0,0,1,1.53-.814,1.885,1.885,0,0,1,1.5.765,3.574,3.574,0,0,1,.628,2.3,3.669,3.669,0,0,1-.643,2.383,1.95,1.95,0,0,1-1.545.768,1.907,1.907,0,0,1-1.511-.742,3.518,3.518,0,0,1-.624-2.3A3.664,3.664,0,0,1,60.174,23.035ZM71.4,27.806a3.515,3.515,0,0,0,1.586,1.322,6.29,6.29,0,0,0,2.507.439,5.013,5.013,0,0,0,2.123-.435,3.329,3.329,0,0,0,1.447-1.22,3.038,3.038,0,0,0,.5-1.67,2.777,2.777,0,0,0-.458-1.579,3.343,3.343,0,0,0-1.421-1.132,14.5,14.5,0,0,0-2.439-.708,5.779,5.779,0,0,1-2.2-.792,1.268,1.268,0,0,1-.428-0.984,1.47,1.47,0,0,1,.605-1.178,3.066,3.066,0,0,1,1.928-.488,2.952,2.952,0,0,1,1.92.538,2.279,2.279,0,0,1,.763,1.591l1.4-.106a3.383,3.383,0,0,0-.541-1.75,3.124,3.124,0,0,0-1.439-1.17,5.481,5.481,0,0,0-2.161-.4,5.211,5.211,0,0,0-2.022.378,2.943,2.943,0,0,0-1.383,1.11,2.841,2.841,0,0,0-.473,1.572,2.547,2.547,0,0,0,.387,1.382,2.988,2.988,0,0,0,1.176,1.034,9.976,9.976,0,0,0,2.127.693,19.623,19.623,0,0,1,1.962.541,2.229,2.229,0,0,1,.992.656,1.452,1.452,0,0,1,.3.912,1.6,1.6,0,0,1-.312.951A2.042,2.042,0,0,1,76.9,28a4.027,4.027,0,0,1-1.473.25,4.17,4.17,0,0,1-1.691-.33,2.481,2.481,0,0,1-1.109-.863,3.073,3.073,0,0,1-.455-1.367l-1.375.121A3.764,3.764,0,0,0,71.4,27.806Zm12.423,0.406a0.893,0.893,0,0,1-.462-0.1,0.566,0.566,0,0,1-.233-0.265,2.394,2.394,0,0,1-.071-0.75v-4.7h1.361v-1.06H83.059v-2.81l-1.346.818v1.992H80.721v1.06h0.992v4.628a4.916,4.916,0,0,0,.165,1.609,1.308,1.308,0,0,0,.571.617,2.3,2.3,0,0,0,1.142.235,4.97,4.97,0,0,0,1.022-.122l-0.2-1.2a4.387,4.387,0,0,1-.594.053h0Zm2.234,0.265a3.575,3.575,0,0,0,2.71,1.083,3.892,3.892,0,0,0,1.928-.492,3.285,3.285,0,0,0,1.346-1.382,5.358,5.358,0,0,0,.462-2.443,4.154,4.154,0,0,0-1.045-3,3.569,3.569,0,0,0-2.691-1.087,3.7,3.7,0,0,0-2.511.894,4.162,4.162,0,0,0-1.233,3.31A4.348,4.348,0,0,0,86.06,28.477Zm1.026-5.431a2.218,2.218,0,0,1,3.356,0,3.34,3.34,0,0,1,.673,2.26,3.527,3.527,0,0,1-.669,2.356,2.217,2.217,0,0,1-3.36,0,3.443,3.443,0,0,1-.669-2.314A3.429,3.429,0,0,1,87.086,23.046Zm8.343,6.332V25.167a5.345,5.345,0,0,1,.226-1.59,1.459,1.459,0,0,1,.5-0.746,1.285,1.285,0,0,1,.8-0.269,1.924,1.924,0,0,1,.992.3l0.466-1.265a2.626,2.626,0,0,0-1.391-.44,1.5,1.5,0,0,0-.868.273,3.327,3.327,0,0,0-.861,1.129V21.334H94.076v8.044h1.353Zm8.418-1.333a2.056,2.056,0,0,1-1.27.394,2.208,2.208,0,0,1-1.669-.7,3.1,3.1,0,0,1-.744-2.03h5.953c0-.161.008-0.283,0.008-0.363a4.389,4.389,0,0,0-1.015-3.091,3.4,3.4,0,0,0-2.616-1.1,3.5,3.5,0,0,0-2.69,1.121,4.465,4.465,0,0,0-1.037,3.151,4.266,4.266,0,0,0,1.026,3.049,4.125,4.125,0,0,0,5.062.406,3.443,3.443,0,0,0,1.226-1.917l-1.4-.174A2.619,2.619,0,0,1,103.847,28.045ZM100.942,22.9a2.143,2.143,0,0,1,1.567-.629,2.07,2.07,0,0,1,1.677.788,2.747,2.747,0,0,1,.511,1.522h-4.458A2.5,2.5,0,0,1,100.942,22.9Z"/>
  <path id="icon" class="cls-2" d="M24.256,12.1c2.881,0,4.723,2.809,4.723,2.809a5.8,5.8,0,0,0-2.81,4.874A5.4,5.4,0,0,0,29.7,24.9s-2.786,6.661-5.915,6.661c-1.759,0-1.877-1.02-4.215-1.02-2.031,0-2.715,1.02-4.262,1.02-2.952,0-6.765-6.494-6.765-11.775,0-5.486,3.861-7.683,6.281-7.683,2.125,0,3.011,1.261,4.723,1.261C20.986,13.36,22.119,12.1,24.256,12.1Zm-0.5-5.594c0.425,2.689-2,6.014-4.888,5.906C18.447,8.991,21.564,6.686,23.76,6.506Z"/>
</svg>
