<svg xmlns="http://www.w3.org/2000/svg" width="32" height="21" viewBox="0 0 32 21">
  <defs>
    <style>
      .cls-1 {
        fill: #fdbd36;
        fill-rule: evenodd;
      }
    </style>
  </defs>
  <path class="cls-1" d="M29.583,21a2.179,2.179,0,0,1-.373-0.032L1.808,16.31A2.206,2.206,0,0,1,.01,13.8c0-.045.01-0.125,0.022-0.206A16.132,16.132,0,0,1,18.571.224a15.965,15.965,0,0,1,10.437,6.6,16.287,16.287,0,0,1,2.76,12.128c-0.016.094-.033,0.173-0.051,0.251A2.163,2.163,0,0,1,29.583,21ZM4.84,12.348l22.79,3.874a11.854,11.854,0,0,0-2.18-6.834A11.666,11.666,0,0,0,4.84,12.348Z"/>
</svg>
