<svg xmlns="http://www.w3.org/2000/svg" width="35" height="60" viewBox="0 0 35 60">
  <defs>
    <style>
      .cls-1 {
        fill: #fd3636;
        fill-rule: evenodd;
      }
    </style>
  </defs>
  <path id="Shape_11_copy_2" data-name="Shape 11 copy 2" class="cls-1" d="M6.987,31.554A2.4,2.4,0,0,1,7.51,30.06L30.537,0.95A2.548,2.548,0,0,1,34.054.509a2.408,2.408,0,0,1,.452,3.434L11.479,33.052a2.548,2.548,0,0,1-3.517.442A2.423,2.423,0,0,1,6.987,31.554Zm-7,26A2.4,2.4,0,0,1,.51,56.06L23.537,26.95a2.548,2.548,0,0,1,3.517-.441,2.407,2.407,0,0,1,.452,3.433L4.479,59.052a2.548,2.548,0,0,1-3.517.442A2.422,2.422,0,0,1-.013,57.554Z"/>
</svg>
