<svg xmlns="http://www.w3.org/2000/svg" width="22" height="21" viewBox="0 0 22 21">
  <defs>
    <style>
      .cls-1 {
        fill: #1fd3b3;
        fill-rule: evenodd;
      }
    </style>
  </defs>
  <path class="cls-1" d="M20.193,21a1.811,1.811,0,0,1-1.811-1.646L17.167,5.119,3.313,9.066A1.825,1.825,0,0,1,1.06,7.836,1.794,1.794,0,0,1,2.305,5.612L18.289,1.058a1.841,1.841,0,0,1,1.537.246,1.794,1.794,0,0,1,.782,1.33l1.4,16.414a1.8,1.8,0,0,1-1.661,1.942C20.3,20.993,20.244,21,20.193,21Z"/>
</svg>
