<svg xmlns="http://www.w3.org/2000/svg" width="14" height="13" viewBox="0 0 14 13">
  <defs>
    <style>
      .cls-1 {
        fill: #fff;
        fill-rule: evenodd;
      }
    </style>
  </defs>
  <path id="Forma_1" data-name="Forma 1" class="cls-1" d="M12.821,11.84L9.611,8.622a5.119,5.119,0,0,0,1.277-3.374A5.356,5.356,0,0,0,5.444,0,5.356,5.356,0,0,0,0,5.248,5.355,5.355,0,0,0,5.444,10.5a5.529,5.529,0,0,0,3.12-.949L11.8,12.789a0.728,0.728,0,0,0,1,.019A0.667,0.667,0,0,0,12.821,11.84ZM5.444,1.368a3.959,3.959,0,0,1,4.025,3.88,3.959,3.959,0,0,1-4.025,3.88,3.959,3.959,0,0,1-4.025-3.88A3.959,3.959,0,0,1,5.444,1.368Z"/>
</svg>
