<svg xmlns="http://www.w3.org/2000/svg" width="15" height="15" viewBox="0 0 15 15">
  <defs>
    <style>
      .cls-1 {
        fill: #f44336;
        fill-rule: evenodd;
      }
    </style>
  </defs>
  <path id="Forma_1" data-name="Forma 1" class="cls-1" d="M9.82,7.5l5.088-5.086a0.313,0.313,0,0,0,0-.442l-1.88-1.879a0.313,0.313,0,0,0-.442,0L7.5,5.179,2.409,0.093a0.322,0.322,0,0,0-.442,0L0.087,1.972a0.313,0.313,0,0,0,0,.442L5.175,7.5,0.087,12.587a0.313,0.313,0,0,0,0,.442l1.88,1.879a0.313,0.313,0,0,0,.442,0L7.5,9.822l5.088,5.086a0.312,0.312,0,0,0,.442,0l1.88-1.879a0.313,0.313,0,0,0,0-.442Z"/>
</svg>
